<?xml version="1.0" standalone="no"?>
<!DOCTYPE svg PUBLIC "-//W3C//DTD SVG 20010904//EN"
 "http://www.w3.org/TR/2001/REC-SVG-20010904/DTD/svg10.dtd">
<svg version="1.0" xmlns="http://www.w3.org/2000/svg"
 width="576.000000pt" height="360.000000pt" viewBox="0 0 576.000000 360.000000"
 preserveAspectRatio="xMidYMid meet">

<g transform="translate(0.000000,360.000000) scale(0.100000,-0.100000)"
fill="#000000" stroke="none">
<path d="M3418 3070 c-28 -17 -24 -91 7 -128 22 -26 23 -31 10 -42 -9 -8 -15
-30 -15 -56 l0 -44 -85 0 -85 0 0 30 0 30 -85 0 -85 0 0 -30 0 -30 -785 0
c-833 0 -831 0 -849 -45 -3 -9 -6 -118 -6 -241 0 -217 1 -224 20 -224 11 0 20
-4 20 -10 0 -5 -22 -10 -49 -10 l-49 0 -4 -56 c-3 -63 4 -84 32 -84 20 0 20
-10 20 -390 l0 -390 266 0 c188 0 265 -3 262 -11 -3 -8 -80 -11 -256 -10 -139
1 -268 -1 -287 -5 -34 -6 -35 -7 -35 -55 l0 -49 280 0 279 0 12 41 c12 38 32
59 45 46 3 -2 -7 -56 -23 -118 -22 -92 -45 -149 -121 -303 -107 -216 -132
-287 -165 -452 l-23 -119 -682 0 c-375 0 -682 -3 -682 -7 0 -5 310 -8 688 -8
l689 0 17 103 c27 156 70 275 171 480 79 159 98 207 122 308 21 88 32 119 43
119 9 0 28 25 44 58 58 120 88 162 117 162 34 0 39 13 46 121 4 58 2 93 -6
108 -12 21 -11 22 11 16 44 -14 77 -46 102 -98 40 -85 49 -139 43 -246 -5
-101 -17 -141 -61 -205 -14 -21 -26 -50 -26 -63 0 -14 -18 -68 -40 -121 -71
-170 -65 -205 33 -183 72 16 280 119 347 171 119 94 222 193 208 201 -7 5
-111 9 -232 9 -204 0 -218 1 -211 18 4 9 12 30 17 45 l10 28 275 -1 c151 -1
278 1 281 4 3 3 -123 6 -279 6 l-285 0 -22 -53 c-12 -29 -22 -56 -22 -60 0 -4
103 -7 230 -7 l230 0 -43 -39 c-127 -117 -208 -175 -322 -232 -139 -69 -223
-95 -242 -76 -16 15 1 79 47 183 17 36 30 78 30 92 0 15 16 52 35 83 42 68 56
127 58 241 l2 86 45 -46 c163 -165 415 -190 609 -61 33 22 72 55 87 72 23 29
23 26 -8 -33 -20 -39 -58 -90 -97 -127 -56 -56 -94 -81 -76 -53 12 20 -4 9
-39 -26 -20 -20 -35 -39 -32 -41 8 -8 111 67 168 123 44 44 72 86 128 195 39
76 82 152 95 168 14 16 25 42 25 58 0 16 -16 107 -36 203 l-36 175 37 33 c64
59 107 34 121 -69 5 -41 4 -45 -25 -61 -59 -33 -33 -102 66 -169 l45 -31 -6
-57 c-2 -31 -9 -87 -15 -126 -6 -38 -10 -145 -9 -238 l0 -167 -33 -44 c-19
-23 -100 -114 -181 -202 -137 -146 -170 -194 -134 -194 28 0 96 57 226 192
l136 139 14 182 c8 100 15 233 15 295 0 61 4 112 8 112 5 0 17 -5 27 -10 16
-9 19 -18 14 -54 -6 -38 -3 -47 26 -79 20 -23 48 -41 73 -49 49 -13 81 -40 95
-76 6 -15 20 -85 32 -157 13 -71 27 -141 32 -155 5 -13 6 -26 1 -27 -4 -2 -6
-24 -4 -50 2 -26 -2 -70 -8 -98 -10 -44 -22 -61 -89 -127 -42 -42 -92 -83
-110 -92 -18 -9 -30 -21 -27 -25 10 -17 -197 -192 -211 -178 -8 7 114 115 162
143 25 15 43 29 40 31 -19 20 -236 -163 -221 -186 12 -20 95 35 194 127 52 48
119 101 150 117 42 23 62 41 81 75 14 25 37 61 52 80 14 19 28 51 30 70 l3 35
33 -62 c20 -38 28 -64 22 -68 -5 -3 -10 -27 -10 -53 0 -26 -7 -76 -15 -112
-16 -68 -86 -220 -111 -241 -8 -6 -57 -31 -110 -55 -106 -47 -129 -63 -116
-76 8 -8 41 2 157 48 11 4 -11 -27 -49 -70 -38 -42 -67 -78 -65 -80 2 -2 42 7
89 20 47 13 121 31 164 41 116 26 120 35 123 220 2 104 -3 176 -16 252 -22
127 -26 119 96 240 46 46 89 94 94 108 14 38 11 110 -6 127 -18 17 -19 56 -4
126 11 50 10 51 -24 89 -20 22 -40 49 -47 60 -14 27 -37 26 -122 -4 -52 -19
-89 -25 -148 -25 l-78 0 -34 39 c-18 21 -48 59 -65 84 l-33 45 28 10 c15 5 52
15 83 21 37 8 79 28 128 61 78 53 253 127 324 136 79 11 140 -42 222 -191 24
-44 55 -93 69 -108 25 -27 60 -35 71 -17 13 21 -62 138 -145 224 -47 49 -99
104 -117 122 -36 40 -34 40 -233 -3 -63 -13 -149 -28 -190 -33 -45 -5 -101
-20 -141 -38 -138 -62 -164 -57 -213 42 -30 61 -47 126 -32 126 2 0 39 7 82
15 60 11 98 27 168 69 142 84 139 83 276 89 152 6 221 27 317 98 58 42 74 49
114 49 61 0 89 -23 126 -103 31 -64 84 -127 109 -127 8 0 14 6 14 14 0 15 -56
92 -105 146 -18 19 -36 48 -40 65 -14 62 -36 68 -124 32 -146 -61 -477 -155
-576 -164 -36 -4 -63 -14 -95 -38 -88 -65 -193 -70 -250 -14 -33 33 -43 62
-38 105 3 25 12 32 91 63 61 25 105 51 145 87 32 28 71 58 87 66 44 23 298 89
384 100 41 5 113 23 160 40 190 67 217 68 277 15 73 -63 137 -234 184 -491 20
-112 41 -192 61 -240 58 -132 50 -230 -46 -616 -54 -216 -91 -394 -100 -480
-13 -134 -94 -358 -175 -488 -22 -35 -40 -65 -40 -68 0 -2 257 -4 572 -4 314
0 569 3 566 6 -3 3 -254 5 -557 4 -303 0 -551 2 -551 5 0 3 29 65 65 138 82
168 122 290 135 408 10 103 49 286 110 528 51 202 84 393 76 445 -4 23 -18 68
-32 101 -36 82 -51 140 -74 280 -24 140 -69 294 -112 380 -50 99 -104 145
-172 145 -31 0 -36 4 -46 38 -24 73 -76 108 -260 172 -58 21 -143 55 -190 76
-81 37 -90 39 -200 41 -63 1 -162 4 -220 8 -68 3 -111 2 -122 -5z m342 -18
c132 -8 137 -10 240 -56 58 -27 134 -57 170 -68 107 -33 200 -87 216 -125 25
-59 20 -73 -28 -73 -24 0 -59 -4 -78 -10 -19 -5 -63 -16 -98 -24 -61 -14 -63
-14 -57 5 10 30 -16 61 -76 94 -47 26 -67 30 -154 35 -97 5 -100 6 -101 29 -1
14 -12 33 -24 43 -19 15 -42 18 -165 18 l-143 0 -27 31 c-35 42 -33 100 5 111
25 7 47 6 320 -10z m-10 -155 c34 -17 40 -57 8 -57 -36 0 -241 49 -252 60 -15
15 213 13 244 -3z m-234 -16 c28 -11 91 -27 140 -36 111 -20 124 -24 124 -36
0 -5 -73 -9 -175 -9 l-175 0 0 38 c0 34 14 62 30 62 3 0 28 -9 56 -19z m-278
-63 l3 -28 90 0 c82 0 89 -1 89 -20 0 -20 7 -20 310 -20 l311 0 8 -22 c5 -13
7 -26 4 -30 -2 -4 1 -17 7 -28 9 -17 8 -20 -7 -20 -10 1 -29 7 -43 15 -20 12
-86 14 -342 15 l-318 0 0 25 0 25 -840 0 -840 0 0 -25 c0 -24 -2 -24 -92 -27
l-93 -3 -5 -183 c-7 -260 -24 -242 -28 29 -2 201 -1 218 17 240 l19 24 801 3
801 2 0 31 0 30 73 -3 c70 -3 72 -4 75 -30z m782 -24 c30 -14 63 -33 72 -41
21 -19 23 -54 6 -71 -19 -19 -28 -14 -28 14 0 14 -5 34 -10 45 -10 18 -24 19
-320 19 -269 0 -310 2 -310 15 0 13 27 15 180 15 153 0 180 2 180 15 0 12 16
15 88 15 72 0 96 -5 142 -26z m-690 -93 c0 -13 -8 -21 -22 -23 -23 -3 -23 -6
-28 -163 -5 -145 -7 -163 -26 -188 -12 -15 -25 -27 -29 -27 -5 0 -30 21 -57
46 -92 86 -221 128 -398 128 -99 0 -126 -4 -195 -28 -72 -25 -196 -96 -223
-128 -8 -10 -102 -12 -431 -10 l-421 2 0 175 0 175 85 0 85 0 0 -135 0 -135
195 0 195 0 0 145 0 145 -185 0 c-178 0 -185 1 -185 20 0 20 7 20 820 20 803
0 820 0 820 -19z m1020 14 c0 -11 -197 -66 -229 -63 -46 5 -32 10 99 41 110
27 130 30 130 22z m-2300 -185 l0 -130 -180 0 -180 0 0 130 0 130 180 0 180 0
0 -130z m1280 -50 l0 -180 -40 0 c-38 0 -39 1 -28 20 7 11 16 20 20 20 5 0 8
72 8 160 0 153 1 160 20 160 19 0 20 -7 20 -180z m684 167 c16 -12 0 -18 -125
-51 -168 -44 -180 -50 -260 -121 -45 -41 -81 -62 -146 -86 -98 -37 -111 -53
-94 -115 14 -49 27 -66 71 -93 65 -39 160 -25 239 35 24 19 56 34 70 34 l26 0
-30 -18 c-146 -89 -196 -112 -271 -127 -43 -8 -80 -15 -81 -15 -2 0 -3 12 -3
26 0 41 -21 102 -41 120 -15 13 -24 14 -51 5 -18 -6 -43 -21 -56 -34 l-23 -22
3 45 3 45 50 5 50 5 3 188 2 187 323 0 c251 0 327 -3 341 -13z m-1060 -207
c97 -25 158 -57 224 -121 49 -47 52 -53 52 -99 l0 -50 -42 47 c-98 106 -231
164 -380 164 -102 0 -169 -23 -195 -68 -9 -16 -38 -42 -65 -58 -66 -40 -149
-129 -183 -194 -24 -49 -54 -160 -55 -203 0 -26 37 -23 54 5 8 12 20 44 26 70
10 45 45 127 54 127 3 0 11 2 19 6 9 3 3 -16 -17 -58 -28 -57 -31 -70 -31
-163 0 -93 2 -105 33 -167 41 -83 120 -158 200 -189 86 -34 216 -32 295 4 80
36 158 113 193 190 26 55 29 73 29 162 0 93 -2 105 -33 167 -59 120 -170 198
-305 214 -56 7 -145 -8 -189 -30 -30 -16 -38 -7 -38 40 0 33 32 51 118 66 409
70 695 -417 437 -744 -170 -216 -496 -236 -690 -43 -37 37 -68 84 -106 161
-55 111 -81 139 -134 150 -52 9 -64 -9 -71 -116 -8 -131 -18 -161 -69 -221
-26 -30 -52 -76 -63 -108 -11 -33 -25 -56 -33 -56 -8 0 -13 8 -11 18 3 16 -16
17 -268 17 l-270 0 2 385 3 386 392 -1 391 0 26 45 c14 24 26 46 26 49 0 3
-191 6 -425 6 l-425 0 0 -40 c0 -33 -3 -40 -20 -40 -18 0 -20 7 -20 55 l0 55
55 0 c42 0 55 3 55 15 0 13 53 15 420 15 l420 0 53 43 c108 88 220 125 378
126 75 1 129 -5 183 -19z m1516 -35 c0 -12 -5 -12 -35 1 -20 8 -40 12 -45 9
-6 -4 -10 -2 -10 4 0 13 50 19 73 9 9 -5 17 -15 17 -23z m-210 -46 c-71 -57
-170 -88 -300 -94 l-95 -5 150 39 c83 21 170 48 195 59 59 27 83 28 50 1z
m-1327 -4 c81 -21 152 -59 209 -113 80 -75 84 -85 124 -284 l37 -185 -23 -31
c-13 -18 -25 -31 -26 -29 -1 1 3 31 9 66 28 174 -65 373 -221 472 -101 64
-251 86 -372 55 -30 -8 -56 -13 -57 -12 -8 8 58 56 87 64 53 15 169 14 233 -3z
m1670 -145 c15 -24 15 -29 3 -24 -19 7 -58 58 -80 104 l-17 35 39 -43 c21 -23
46 -56 55 -72z m-2013 11 c0 -22 4 -42 9 -45 4 -3 33 3 64 14 37 13 82 20 131
20 102 0 170 -27 245 -96 247 -229 88 -637 -249 -637 -145 0 -266 77 -332 211
-30 61 -33 75 -33 158 0 86 2 96 37 163 l36 71 -24 0 c-43 0 -74 -50 -104
-166 -5 -23 -17 -47 -25 -54 -37 -30 -7 122 40 209 39 72 159 187 198 190 4 1
7 -17 7 -38z m-348 -41 l-17 -30 -392 0 -393 0 0 30 0 30 410 0 409 0 -17 -30z
m1168 -150 c0 -8 14 -41 30 -72 18 -34 26 -58 19 -58 -20 0 -109 96 -109 118
0 27 40 57 52 39 4 -6 8 -19 8 -27z m814 -46 c9 -8 21 -24 26 -35 10 -17 8
-17 -25 2 -28 17 -47 20 -88 17 -71 -6 -255 -82 -341 -140 -39 -26 -87 -51
-106 -54 -19 -3 -57 -12 -84 -20 -32 -10 -51 -12 -55 -5 -4 5 -19 14 -34 20
-24 9 -27 16 -27 55 l0 44 43 -5 c34 -4 59 2 116 26 42 19 111 38 164 47 51 8
142 25 202 38 133 29 188 32 209 10z m127 -136 c52 -54 129 -167 129 -190 0
-48 -60 8 -109 103 -19 35 -45 79 -58 97 -34 46 -10 40 38 -10z m-2074 -64
c25 -22 25 -24 3 -10 -21 14 -80 23 -80 13 0 -2 7 -19 16 -37 13 -25 15 -48
10 -106 -8 -92 -14 -107 -37 -101 -26 7 -55 -29 -109 -134 -26 -50 -50 -87
-53 -82 -11 18 30 113 67 153 54 60 68 101 73 210 3 52 6 101 8 108 8 22 72
14 102 -14z m1197 -284 c-5 -58 -10 -91 -12 -75 -2 17 0 91 4 165 7 98 10 119
12 75 2 -33 0 -107 -4 -165z m141 145 c21 -27 43 -56 48 -62 7 -10 3 -10 -21
-2 -38 13 -80 54 -88 85 -6 25 4 51 15 37 4 -4 24 -30 46 -58z m439 -85 c14
-22 31 -40 36 -40 19 0 28 -36 19 -80 -5 -25 -11 -62 -14 -82 l-6 -38 -135 0
-136 0 7 -32 c15 -73 4 -68 146 -68 l129 0 0 39 c0 52 17 61 24 14 11 -63 -7
-98 -87 -176 -41 -40 -84 -85 -97 -102 -12 -16 -25 -25 -27 -19 -2 7 -21 40
-42 75 -41 69 -69 164 -97 334 -9 55 -25 115 -35 134 l-20 34 32 -7 c41 -8
146 9 201 33 62 28 72 26 102 -19z m-2104 -259 c0 -5 -4 -21 -10 -35 l-10 -26
-270 0 -270 0 0 35 0 35 280 0 c167 0 280 -4 280 -9z m2140 -26 l0 -35 -119 0
c-126 0 -131 2 -131 51 0 18 8 19 125 19 l125 0 0 -35z m-632 -62 c-5 -33 -26
-59 -149 -184 -127 -129 -209 -196 -209 -171 0 4 77 91 170 192 94 102 170
188 170 192 0 5 5 8 11 8 8 0 10 -13 7 -37z m372 -162 c0 -20 -7 -46 -16 -57
-14 -17 -15 -17 -10 -1 3 10 6 39 6 63 0 28 4 43 10 39 6 -3 10 -23 10 -44z
m104 -241 c18 -119 19 -146 4 -110 l-11 25 -7 -31 c-13 -57 -54 -118 -90 -136
-19 -9 -36 -15 -38 -13 -1 1 15 36 36 78 46 88 72 184 72 259 0 78 15 47 34
-72z m-196 68 c-8 -12 -25 -28 -39 -37 -18 -11 -16 -6 10 22 39 42 50 48 29
15z m202 -228 c0 -15 -31 -60 -41 -60 -5 0 -1 16 8 35 16 34 33 46 33 25z m10
-110 c0 -54 -16 -114 -35 -133 -7 -8 -42 -20 -77 -26 -35 -7 -97 -21 -138 -31
-41 -10 -76 -18 -77 -17 -1 2 26 35 60 74 58 68 114 112 207 164 22 13 40 27
40 33 0 6 5 4 10 -4 5 -8 10 -35 10 -60z m-165 -20 c-3 -5 -12 -10 -18 -10 -7
0 -6 4 3 10 19 12 23 12 15 0z m-45 -19 c0 -4 -30 -22 -67 -38 -108 -48 -127
-47 -28 2 104 51 95 47 95 36z"/>
</g>
</svg>
